# xmcd
#
# Track frame offsets:
#  150
#  18773
#  30169
#  44793
#  59836
#  76528
#  94832
#  107326
#  119341
#  134470
#  144448
#  163224
#  174096
#  185940
#  205789
#  214928
#  226363
#  236160
#  249247
#
# Disc length: 3484 seconds
#
# Revision: 0
# Processed by: cddbd v1.5.1PL2 Copyright (c) Steve Scherf et al.
# Submitted via: Collectorz.com_Music_Collector 6.11
#
DISCID=030d9a13
DTITLE=Various Artist - Classic Songs - Country Style [CD1)
DYEAR=2004
DGENRE=Country
TTITLE0=Kenny Rogers (1938-    ) - My Funny Valentine
TTITLE1=Ray Price - Raining In My Heart
TTITLE2=Crystal Gayle X - Cry Me A River
TTITLE3=Kenny Rogers (1938-    ) - Misty
TTITLE4=Don Williams (1939-    ) - Fever
TTITLE5=Willie Nelson (1933-    ) - Someone To Watch Over Me
TTITLE6=Eddy Arnold (1918-    ) - The Way You Look Tonight
TTITLE7=Kenny Rogers (1938-    ) - Love Is A Many Splendored Thing
TTITLE8=Marty Robbins (1925-1982) - As Time Goes By
TTITLE9=Skeeter Davis - When I Fall In Love
TTITLE10=Crystal Gayle (1951 -    ) - It Had To Be You
TTITLE11=Billie Jo Spears (1937-    ) - Misty Blue
TTITLE12=Jim Reeves (1923-1964) - Mona Lisa
TTITLE13=Eddy Arnold (1918-    ) - My Way
TTITLE14=Skeeter Davis - Fly Me To The Moon
TTITLE15=Eddy Arnold (1918-    ) - Smile
TTITLE16=Patsy Cline (1932-1963) - True Love
TTITLE17=Charlie Rich - I've Got You Under My Skin
TTITLE18=Patsy Cline (1932-1963) - Always
EXTD=
EXTT0=
EXTT1=
EXTT2=
EXTT3=
EXTT4=
EXTT5=
EXTT6=
EXTT7=
EXTT8=
EXTT9=
EXTT10=
EXTT11=
EXTT12=
EXTT13=
EXTT14=
EXTT15=
EXTT16=
EXTT17=
EXTT18=
PLAYORDER=
